<svg xmlns="http://www.w3.org/2000/svg" version="1.1" width="320px" height="320px">
  <rect width="100%" height="100%" fill="#ccc" />
  <!-- <path d="M10 315 
          L 110 215
          A 30 50 0 0 1 162.55 162.45
          L 172.55 152.45
          A 30 50 -45 0 1 215.1 109.9
          L 315 10" stroke="black" fill="green" stroke-width="2" fill-opacity="0.5" /> -->
  <path d="M40 40
           A 45 45, 0, 0, 0, 85 85
           L 85 40 Z" stroke="black" fill="green" stroke-width="2" fill-opacity="0.5" />
  <path d="M 220 80
          A 45 45, 0, 1, 0, 275 125
          L 275 80 Z" stroke="black" fill="red" stroke-width="2" fill-opacity="0.5" />
  <path d="M 80 230
          A 45 45, 0, 0, 1, 125 275
          L 125 230 Z" stroke="black" fill="purple" stroke-width="2" fill-opacity="0.5" />
  <path d="M 220 230
          A 45 45, 0, 1, 1, 275 275
          L 274 230 Z" stroke="black" fill="blue" stroke-width="2" fill-opacity="0.5" />
</svg>
